<svg xmlns="http://www.w3.org/2000/svg" xmlns:xlink="http://www.w3.org/1999/xlink" viewBox="0,0,256,256" width="48px" height="48px"><g fill-opacity="0.34902" fill="#000000" fill-rule="nonzero" stroke="none" stroke-width="1" stroke-linecap="butt" stroke-linejoin="miter" stroke-miterlimit="10" stroke-dasharray="" stroke-dashoffset="0" font-family="none" font-weight="none" font-size="none" text-anchor="none" style="mix-blend-mode: normal"><g transform="scale(3.55556,3.55556)"><path d="M36,12c13.255,0 24,10.745 24,24c0,13.255 -10.745,24 -24,24c-13.255,0 -24,-10.745 -24,-24c0,-13.255 10.745,-24 24,-24zM44.279,45.783c0.441,-1.354 2.51,-14.853 2.765,-17.513c0.077,-0.806 -0.177,-1.341 -0.676,-1.58c-0.603,-0.29 -1.496,-0.145 -2.533,0.229c-1.421,0.512 -19.59,8.227 -20.64,8.673c-0.995,0.423 -1.937,0.884 -1.937,1.552c0,0.47 0.279,0.734 1.047,1.008c0.799,0.285 2.812,0.895 4.001,1.223c1.145,0.316 2.448,0.042 3.178,-0.412c0.774,-0.481 9.71,-6.46 10.351,-6.984c0.641,-0.524 1.152,0.147 0.628,0.672c-0.524,0.524 -6.657,6.477 -7.466,7.301c-0.982,1.001 -0.285,2.038 0.374,2.453c0.752,0.474 6.163,4.103 6.978,4.685c0.815,0.582 1.641,0.846 2.398,0.846c0.757,0 1.155,-0.996 1.532,-2.153z"></path></g></g></svg>